<svg xmlns="http://www.w3.org/2000/svg" viewBox="0 0 100 72.937"><path fill="currentColor" d="m.96 72.601-.547-.572c-.626-.652-.542-1.48.253-2.504l.49-.629c14.387.1.219.077 14.795.001.085-5.076.176-3.405.043-5.157l-.404-.271c-3.072-.014-7.258-4.999-7.842-9.339l-.264-1.959.423-1.973c.7-3.287 2.517-5.922 4.912-7.13 1.19-.599 1.4-1.024.511-1.034-2.75-.03-5.624-5.032-5.624-9.783v-2.778l.571-1.509c.717-1.892 2.501-3.98 4.304-5.04l1.387-.816-1.037-.508C4.446 17.44 6.544 3.058 15.99.616l1.595-.413 31.88-.14c33.768-.148 34.457-.127 37.019 1.09 7.617 3.624 8.261 16.998.974 20.24l-1.002.445 1.401 1.101c4.38 3.445 6.05 9.347 3.923 13.877-.803 1.712-3.847 5.225-4.527 5.225-.734 0-.507.458.635 1.286 7.618 5.517 5.285 18.83-3.514 20.058l-1.018.142.023 5.327 7.706.02 7.706.022.614.742c.808.98.79 1.902-.045 2.473l-.66.45c-97.734.045-.002-.004-97.74.04Zm62.987-8.467-13.274-.086c-12.525-.082-13.673.063-14.548.119.223 4.962-.056-.06.185 4.862l27.626.023c-.002-5.007.005 0 .011-4.918zm-32.008.161-5.524-.08c-3.482-.05-5.595.017-5.713.183.076 4.457.04.275.124 4.546h11.113Zm47.016-.029H68.162c.17 3.385.103 2.154.103 4.702 10.61.02 7.115.012 10.636-.015zm5.57-5.027c6.04-3.177 4.767-12.117-1.997-14.012-.814-.229-9.335-.314-32.426-.326l-31.32-.016-1.467.481c-7.427 2.433-7.371 12.205.081 14.288l1.46.41 21.339-.15c11.736-.084 24.768-.043 28.96.09 4.19.133 9.036.187 10.767.12l3.147-.12zm-7.496-2.225c-2.097-.972-3.304-4.205-2.309-6.189 1.973-3.933 7.427-3.39 8.384.834.686 3.027-3.373 6.605-6.075 5.355zm-10.223-1.487c-2.436-1.02-1.635-5.548.98-5.548 1.024 0 2.511 1.49 2.511 2.513 0 2.126-1.84 3.726-3.49 3.035zM56.5 54.528c-2.15-2.338 1.203-5.8 3.402-3.51.55.571.742 1.023.742 1.74 0 2.228-2.672 3.37-4.144 1.77zm-37.554-.317c-2.333-.217-3.2-1.65-1.976-3.27l.526-.698h30.978l.624.65c.775.807.791 1.645.05 2.597l-.57.734-14.099.06c-7.753.033-14.744 0-15.533-.073zm65.306-14.945c5.82-3.103 5.565-10.968-.451-13.856l-1.752-.84-32.104.07-32.104.071-1.442.704c-5.839 2.85-6.218 10.398-.682 13.592l1.362.785 29.72.154c16.347.085 31.2.105 33.007.046l3.285-.108zm-6.841-2.548c-3.069-1.27-3.769-5.544-1.268-7.735 3.603-3.158 8.585 1.218 6.28 5.518-.94 1.752-3.452 2.863-5.012 2.217zm-19.97-1.28c-2.151-.928-2.106-3.994.07-4.942l.866-.376.89.44c2.746 1.357.976 6.086-1.827 4.878zm9.365-.02c-1.3-.544-1.91-2.547-1.206-3.965 1.227-2.47 4.697-1.467 4.697 1.358v1.081l-.864.9c-.88.917-1.551 1.077-2.627.627zM17.37 33.72c-.906-.874-.987-2.016-.201-2.857l.432-.463 15.568-.027 15.567-.026.493.465c.916.864.432 2.525-.95 3.262-.392.207-4.968.295-15.397.295H18.04Zm63.503-13.91c3.435-.313 5.585-1.697 6.871-4.428l.716-1.518v-3.97l-.712-1.51c-.71-1.505-1.778-2.594-3.48-3.544l-.888-.497-32.643.083c-33.301.085-33.67.096-35.599 1.121-5.129 2.726-3.973 11.803 1.757 13.781 1.613.557 58.43.983 63.978.48zm-4.481-3.499c-1.395-.988-1.868-1.876-1.978-3.707l-.096-1.65.6-.92c2.229-3.418 6.876-2.882 8.085.932 1.143 3.608-3.624 7.463-6.611 5.345zm-10.283-1.598c-2.256-2.349.102-5.805 2.924-4.286 2.182 1.176 1.459 4.535-1.083 5.03l-.95.185Zm-9.55-.167c-2.092-2.18.452-5.35 3-3.732 1.334.848 1.424 2.59.197 3.867-.89.927-2.23.87-3.196-.135zm-38.591-.472c-1.463-.557-1.845-1.777-.912-2.907l.614-.743 15.426-.072 15.427-.072.599.41c.782.532.787 1.694.015 2.562l-.584.657-5.957.175c-7.005.207-24.078.2-24.628-.01z"/></svg>
